<?xml version="1.0" encoding="utf-8"?>
<!-- Generator: Adobe Illustrator 17.0.0, SVG Export Plug-In . SVG Version: 6.00 Build 0)  -->
<!DOCTYPE svg PUBLIC "-//W3C//DTD SVG 1.1//EN" "http://www.w3.org/Graphics/SVG/1.1/DTD/svg11.dtd">
<svg version="1.1" xmlns="http://www.w3.org/2000/svg" xmlns:xlink="http://www.w3.org/1999/xlink" x="0px" y="0px" width="192px"
	 height="192px" viewBox="0 0 192 192" enable-background="new 0 0 192 192" xml:space="preserve">
<symbol  id="material_x5F_product_x5F_icon_x5F_border" viewBox="0 -192 192 192">
	<polygon fill="none" points="0,0 0,-192 192,-192 192,0 	"/>
</symbol>
<symbol  id="material_x5F_product_x5F_icon_x5F_grid" viewBox="0 -192 192 192">
	<g>
		<defs>
			<polygon id="SVGID_1_" points="192,-192 0,-192 0,0 192,0 			"/>
		</defs>
		<clipPath id="SVGID_2_">
			<use xlink:href="#SVGID_1_"  overflow="visible"/>
		</clipPath>
		<g clip-path="url(#SVGID_2_)">
			<g>
				<line fill="none" stroke="#000000" stroke-width="0.25" stroke-miterlimit="10" x1="4" y1="-192" x2="4" y2="0"/>
				<line fill="none" stroke="#000000" stroke-width="0.25" stroke-miterlimit="10" x1="8" y1="-192" x2="8" y2="0"/>
				<line fill="none" stroke="#000000" stroke-width="0.25" stroke-miterlimit="10" x1="12" y1="-192" x2="12" y2="0"/>
				<line fill="none" stroke="#000000" stroke-width="0.25" stroke-miterlimit="10" x1="16" y1="-192" x2="16" y2="0"/>
				<line fill="none" stroke="#000000" stroke-width="0.25" stroke-miterlimit="10" x1="20" y1="-192" x2="20" y2="0"/>
				<line fill="none" stroke="#000000" stroke-width="0.25" stroke-miterlimit="10" x1="24" y1="-192" x2="24" y2="0"/>
				<line fill="none" stroke="#000000" stroke-width="0.25" stroke-miterlimit="10" x1="28" y1="-192" x2="28" y2="0"/>
				<line fill="none" stroke="#000000" stroke-width="0.25" stroke-miterlimit="10" x1="32" y1="-192" x2="32" y2="0"/>
				<line fill="none" stroke="#000000" stroke-width="0.25" stroke-miterlimit="10" x1="36" y1="-192" x2="36" y2="0"/>
				<line fill="none" stroke="#000000" stroke-width="0.25" stroke-miterlimit="10" x1="40" y1="-192" x2="40" y2="0"/>
				<line fill="none" stroke="#000000" stroke-width="0.25" stroke-miterlimit="10" x1="44" y1="-192" x2="44" y2="0"/>
				<line fill="none" stroke="#000000" stroke-width="0.25" stroke-miterlimit="10" x1="48" y1="-192" x2="48" y2="0"/>
				<line fill="none" stroke="#000000" stroke-width="0.25" stroke-miterlimit="10" x1="52" y1="-192" x2="52" y2="0"/>
				<line fill="none" stroke="#000000" stroke-width="0.25" stroke-miterlimit="10" x1="56" y1="-192" x2="56" y2="0"/>
				<line fill="none" stroke="#000000" stroke-width="0.25" stroke-miterlimit="10" x1="60" y1="-192" x2="60" y2="0"/>
				<line fill="none" stroke="#000000" stroke-width="0.25" stroke-miterlimit="10" x1="64" y1="-192" x2="64" y2="0"/>
				<line fill="none" stroke="#000000" stroke-width="0.25" stroke-miterlimit="10" x1="68" y1="-192" x2="68" y2="0"/>
				<line fill="none" stroke="#000000" stroke-width="0.25" stroke-miterlimit="10" x1="72" y1="-192" x2="72" y2="0"/>
				<line fill="none" stroke="#000000" stroke-width="0.25" stroke-miterlimit="10" x1="76" y1="-192" x2="76" y2="0"/>
				<line fill="none" stroke="#000000" stroke-width="0.25" stroke-miterlimit="10" x1="80" y1="-192" x2="80" y2="0"/>
				<line fill="none" stroke="#000000" stroke-width="0.25" stroke-miterlimit="10" x1="84" y1="-192" x2="84" y2="0"/>
				<line fill="none" stroke="#000000" stroke-width="0.25" stroke-miterlimit="10" x1="88" y1="-192" x2="88" y2="0"/>
				<line fill="none" stroke="#000000" stroke-width="0.25" stroke-miterlimit="10" x1="92" y1="-192" x2="92" y2="0"/>
				<line fill="none" stroke="#000000" stroke-width="0.25" stroke-miterlimit="10" x1="96" y1="-192" x2="96" y2="0"/>
				<line fill="none" stroke="#000000" stroke-width="0.25" stroke-miterlimit="10" x1="100" y1="-192" x2="100" y2="0"/>
				<line fill="none" stroke="#000000" stroke-width="0.25" stroke-miterlimit="10" x1="104" y1="-192" x2="104" y2="0"/>
				<line fill="none" stroke="#000000" stroke-width="0.25" stroke-miterlimit="10" x1="108" y1="-192" x2="108" y2="0"/>
				<line fill="none" stroke="#000000" stroke-width="0.25" stroke-miterlimit="10" x1="112" y1="-192" x2="112" y2="0"/>
				<line fill="none" stroke="#000000" stroke-width="0.25" stroke-miterlimit="10" x1="116" y1="-192" x2="116" y2="0"/>
				<line fill="none" stroke="#000000" stroke-width="0.25" stroke-miterlimit="10" x1="120" y1="-192" x2="120" y2="0"/>
				<line fill="none" stroke="#000000" stroke-width="0.25" stroke-miterlimit="10" x1="124" y1="-192" x2="124" y2="0"/>
				<line fill="none" stroke="#000000" stroke-width="0.25" stroke-miterlimit="10" x1="128" y1="-192" x2="128" y2="0"/>
				<line fill="none" stroke="#000000" stroke-width="0.25" stroke-miterlimit="10" x1="132" y1="-192" x2="132" y2="0"/>
				<line fill="none" stroke="#000000" stroke-width="0.25" stroke-miterlimit="10" x1="136" y1="-192" x2="136" y2="0"/>
				<line fill="none" stroke="#000000" stroke-width="0.25" stroke-miterlimit="10" x1="140" y1="-192" x2="140" y2="0"/>
				<line fill="none" stroke="#000000" stroke-width="0.25" stroke-miterlimit="10" x1="144" y1="-192" x2="144" y2="0"/>
				<line fill="none" stroke="#000000" stroke-width="0.25" stroke-miterlimit="10" x1="148" y1="-192" x2="148" y2="0"/>
				<line fill="none" stroke="#000000" stroke-width="0.25" stroke-miterlimit="10" x1="152" y1="-192" x2="152" y2="0"/>
				<line fill="none" stroke="#000000" stroke-width="0.25" stroke-miterlimit="10" x1="156" y1="-192" x2="156" y2="0"/>
				<line fill="none" stroke="#000000" stroke-width="0.25" stroke-miterlimit="10" x1="160" y1="-192" x2="160" y2="0"/>
				<line fill="none" stroke="#000000" stroke-width="0.25" stroke-miterlimit="10" x1="164" y1="-192" x2="164" y2="0"/>
				<line fill="none" stroke="#000000" stroke-width="0.25" stroke-miterlimit="10" x1="168" y1="-192" x2="168" y2="0"/>
				<line fill="none" stroke="#000000" stroke-width="0.25" stroke-miterlimit="10" x1="172" y1="-192" x2="172" y2="0"/>
				<line fill="none" stroke="#000000" stroke-width="0.25" stroke-miterlimit="10" x1="176" y1="-192" x2="176" y2="0"/>
				<line fill="none" stroke="#000000" stroke-width="0.25" stroke-miterlimit="10" x1="180" y1="-192" x2="180" y2="0"/>
				<line fill="none" stroke="#000000" stroke-width="0.25" stroke-miterlimit="10" x1="184" y1="-192" x2="184" y2="0"/>
				<line fill="none" stroke="#000000" stroke-width="0.25" stroke-miterlimit="10" x1="188" y1="-192" x2="188" y2="0"/>
			</g>
			<g>
				<line fill="none" stroke="#000000" stroke-width="0.25" stroke-miterlimit="10" x1="0" y1="-4" x2="192" y2="-4"/>
				<line fill="none" stroke="#000000" stroke-width="0.25" stroke-miterlimit="10" x1="0" y1="-8" x2="192" y2="-8"/>
				<line fill="none" stroke="#000000" stroke-width="0.25" stroke-miterlimit="10" x1="0" y1="-12" x2="192" y2="-12"/>
				<line fill="none" stroke="#000000" stroke-width="0.25" stroke-miterlimit="10" x1="0" y1="-16" x2="192" y2="-16"/>
				<line fill="none" stroke="#000000" stroke-width="0.25" stroke-miterlimit="10" x1="0" y1="-20" x2="192" y2="-20"/>
				<line fill="none" stroke="#000000" stroke-width="0.25" stroke-miterlimit="10" x1="0" y1="-24" x2="192" y2="-24"/>
				<line fill="none" stroke="#000000" stroke-width="0.25" stroke-miterlimit="10" x1="0" y1="-28" x2="192" y2="-28"/>
				<line fill="none" stroke="#000000" stroke-width="0.25" stroke-miterlimit="10" x1="0" y1="-32" x2="192" y2="-32"/>
				<line fill="none" stroke="#000000" stroke-width="0.25" stroke-miterlimit="10" x1="0" y1="-36" x2="192" y2="-36"/>
				<line fill="none" stroke="#000000" stroke-width="0.25" stroke-miterlimit="10" x1="0" y1="-40" x2="192" y2="-40"/>
				<line fill="none" stroke="#000000" stroke-width="0.25" stroke-miterlimit="10" x1="0" y1="-44" x2="192" y2="-44"/>
				<line fill="none" stroke="#000000" stroke-width="0.25" stroke-miterlimit="10" x1="0" y1="-48" x2="192" y2="-48"/>
				<line fill="none" stroke="#000000" stroke-width="0.25" stroke-miterlimit="10" x1="0" y1="-52" x2="192" y2="-52"/>
				<line fill="none" stroke="#000000" stroke-width="0.25" stroke-miterlimit="10" x1="0" y1="-56" x2="192" y2="-56"/>
				<line fill="none" stroke="#000000" stroke-width="0.25" stroke-miterlimit="10" x1="0" y1="-60" x2="192" y2="-60"/>
				<line fill="none" stroke="#000000" stroke-width="0.25" stroke-miterlimit="10" x1="0" y1="-64" x2="192" y2="-64"/>
				<line fill="none" stroke="#000000" stroke-width="0.25" stroke-miterlimit="10" x1="0" y1="-68" x2="192" y2="-68"/>
				<line fill="none" stroke="#000000" stroke-width="0.25" stroke-miterlimit="10" x1="0" y1="-72" x2="192" y2="-72"/>
				<line fill="none" stroke="#000000" stroke-width="0.25" stroke-miterlimit="10" x1="0" y1="-76" x2="192" y2="-76"/>
				<line fill="none" stroke="#000000" stroke-width="0.25" stroke-miterlimit="10" x1="0" y1="-80" x2="192" y2="-80"/>
				<line fill="none" stroke="#000000" stroke-width="0.25" stroke-miterlimit="10" x1="0" y1="-84" x2="192" y2="-84"/>
				<line fill="none" stroke="#000000" stroke-width="0.25" stroke-miterlimit="10" x1="0" y1="-88" x2="192" y2="-88"/>
				<line fill="none" stroke="#000000" stroke-width="0.25" stroke-miterlimit="10" x1="0" y1="-92" x2="192" y2="-92"/>
				<line fill="none" stroke="#000000" stroke-width="0.25" stroke-miterlimit="10" x1="0" y1="-96" x2="192" y2="-96"/>
				<line fill="none" stroke="#000000" stroke-width="0.25" stroke-miterlimit="10" x1="0" y1="-100" x2="192" y2="-100"/>
				<line fill="none" stroke="#000000" stroke-width="0.25" stroke-miterlimit="10" x1="0" y1="-104" x2="192" y2="-104"/>
				<line fill="none" stroke="#000000" stroke-width="0.25" stroke-miterlimit="10" x1="0" y1="-108" x2="192" y2="-108"/>
				<line fill="none" stroke="#000000" stroke-width="0.25" stroke-miterlimit="10" x1="0" y1="-112" x2="192" y2="-112"/>
				<line fill="none" stroke="#000000" stroke-width="0.25" stroke-miterlimit="10" x1="0" y1="-116" x2="192" y2="-116"/>
				<line fill="none" stroke="#000000" stroke-width="0.25" stroke-miterlimit="10" x1="0" y1="-120" x2="192" y2="-120"/>
				<line fill="none" stroke="#000000" stroke-width="0.25" stroke-miterlimit="10" x1="0" y1="-124" x2="192" y2="-124"/>
				<line fill="none" stroke="#000000" stroke-width="0.25" stroke-miterlimit="10" x1="0" y1="-128" x2="192" y2="-128"/>
				<line fill="none" stroke="#000000" stroke-width="0.25" stroke-miterlimit="10" x1="0" y1="-132" x2="192" y2="-132"/>
				<line fill="none" stroke="#000000" stroke-width="0.25" stroke-miterlimit="10" x1="0" y1="-136" x2="192" y2="-136"/>
				<line fill="none" stroke="#000000" stroke-width="0.25" stroke-miterlimit="10" x1="0" y1="-140" x2="192" y2="-140"/>
				<line fill="none" stroke="#000000" stroke-width="0.25" stroke-miterlimit="10" x1="0" y1="-144" x2="192" y2="-144"/>
				<line fill="none" stroke="#000000" stroke-width="0.25" stroke-miterlimit="10" x1="0" y1="-148" x2="192" y2="-148"/>
				<line fill="none" stroke="#000000" stroke-width="0.25" stroke-miterlimit="10" x1="0" y1="-152" x2="192" y2="-152"/>
				<line fill="none" stroke="#000000" stroke-width="0.25" stroke-miterlimit="10" x1="0" y1="-156" x2="192" y2="-156"/>
				<line fill="none" stroke="#000000" stroke-width="0.25" stroke-miterlimit="10" x1="0" y1="-160" x2="192" y2="-160"/>
				<line fill="none" stroke="#000000" stroke-width="0.25" stroke-miterlimit="10" x1="0" y1="-164" x2="192" y2="-164"/>
				<line fill="none" stroke="#000000" stroke-width="0.25" stroke-miterlimit="10" x1="0" y1="-168" x2="192" y2="-168"/>
				<line fill="none" stroke="#000000" stroke-width="0.25" stroke-miterlimit="10" x1="0" y1="-172" x2="192" y2="-172"/>
				<line fill="none" stroke="#000000" stroke-width="0.25" stroke-miterlimit="10" x1="0" y1="-176" x2="192" y2="-176"/>
				<line fill="none" stroke="#000000" stroke-width="0.25" stroke-miterlimit="10" x1="0" y1="-180" x2="192" y2="-180"/>
				<line fill="none" stroke="#000000" stroke-width="0.25" stroke-miterlimit="10" x1="0" y1="-184" x2="192" y2="-184"/>
				<line fill="none" stroke="#000000" stroke-width="0.25" stroke-miterlimit="10" x1="0" y1="-188" x2="192" y2="-188"/>
			</g>
			<g>
				<path d="M191.75-0.25v-191.5H0.25v191.5H191.75 M192,0H0v-192h192V0L192,0z"/>
			</g>
		</g>
	</g>
</symbol>
<symbol  id="material_x5F_product_x5F_icon_x5F_keylines" viewBox="0 -192 192 192">
	<g opacity="0.4">
		<defs>
			<path id="SVGID_3_" opacity="0.4" d="M0,0v-192h192V0H0z"/>
		</defs>
		<clipPath id="SVGID_4_">
			<use xlink:href="#SVGID_3_"  overflow="visible"/>
		</clipPath>
		<g clip-path="url(#SVGID_4_)">
			<line fill="none" stroke="#000000" stroke-width="0.25" stroke-miterlimit="10" x1="0.25" y1="-0.25" x2="191.75" y2="-191.75"/>
			<g>
				<path d="M191.75-0.25v-191.5H0.25v191.5H191.75 M192,0H0v-192h192V0L192,0z"/>
			</g>
			<line fill="none" stroke="#000000" stroke-width="0.25" stroke-miterlimit="10" x1="191.75" y1="-0.25" x2="0.25" y2="-191.75"/>
			<line fill="none" stroke="#000000" stroke-width="0.25" stroke-miterlimit="10" x1="124" y1="0" x2="124" y2="-192"/>
			<line fill="none" stroke="#000000" stroke-width="0.25" stroke-miterlimit="10" x1="68" y1="0" x2="68" y2="-192"/>
			<line fill="none" stroke="#000000" stroke-width="0.25" stroke-miterlimit="10" x1="192" y1="-124" x2="0" y2="-124"/>
			<line fill="none" stroke="#000000" stroke-width="0.25" stroke-miterlimit="10" x1="192" y1="-68" x2="0" y2="-68"/>
			<path fill="none" stroke="#000000" stroke-width="0.25" stroke-miterlimit="10" d="M136-96c0-22.091-17.909-40-40-40
				c-22.091,0-40,17.909-40,40c0,22.091,17.909,40,40,40C118.091-56,136-73.908,136-96z"/>
			<line fill="none" stroke="#000000" stroke-width="0.25" stroke-miterlimit="10" x1="0" y1="-96" x2="192" y2="-96"/>
			<line fill="none" stroke="#000000" stroke-width="0.25" stroke-miterlimit="10" x1="96" y1="0" x2="96" y2="-192"/>
		</g>
		<g clip-path="url(#SVGID_4_)">
			<g>
				<path d="M96-8.25c48.386,0,87.75-39.365,87.75-87.75S144.385-183.75,96-183.75S8.25-144.385,8.25-96S47.614-8.25,96-8.25 M96-8
					C47.399-8,8-47.399,8-96s39.399-88,88-88c48.601,0,88,39.399,88,88S144.601-8,96-8L96-8z"/>
			</g>
		</g>
		<g clip-path="url(#SVGID_4_)">
			<g>
				<path d="M160-20.25c6.479,0,11.75-5.271,11.75-11.75v-128c0-6.479-5.271-11.75-11.75-11.75H32c-6.479,0-11.75,5.271-11.75,11.75
					v128c0,6.479,5.271,11.75,11.75,11.75H160 M160-20H32c-6.6,0-12-5.4-12-12v-128c0-6.6,5.4-12,12-12h128c6.6,0,12,5.4,12,12v128
					C172-25.4,166.6-20,160-20L160-20z"/>
			</g>
		</g>
		<g clip-path="url(#SVGID_4_)">
			<g>
				<path d="M148-8.25c6.479,0,11.75-5.271,11.75-11.75v-152c0-6.479-5.271-11.75-11.75-11.75H44c-6.479,0-11.75,5.271-11.75,11.75
					v152c0,6.479,5.271,11.75,11.75,11.75H148 M148-8H44c-6.6,0-12-5.4-12-12v-152c0-6.6,5.4-12,12-12h104c6.6,0,12,5.4,12,12v152
					C160-13.4,154.6-8,148-8L148-8z"/>
			</g>
		</g>
		<g clip-path="url(#SVGID_4_)">
			<g>
				<path d="M172-32.25c6.479,0,11.75-5.271,11.75-11.75v-104c0-6.479-5.271-11.75-11.75-11.75H20c-6.479,0-11.75,5.271-11.75,11.75
					v104c0,6.479,5.271,11.75,11.75,11.75H172 M172-32H20c-6.6,0-12-5.4-12-12v-104c0-6.6,5.4-12,12-12h152c6.6,0,12,5.4,12,12v104
					C184-37.4,178.6-32,172-32L172-32z"/>
			</g>
		</g>
	</g>
</symbol>
<symbol  id="material_x5F_product_x5F_icon_x5F_trim" viewBox="0 -192 192 192">
	<path fill="#DB4437" fill-opacity="0.4" d="M0,0v-192h192V0H0z M188-184H4V-4h184V-184z"/>
</symbol>
<g id="BASE" display="none">
	<g id="back" display="inline">
		<path fill="#616161" d="M160,172H32c-6.6,0-12-5.4-12-12V32c0-6.6,5.4-12,12-12h128c6.6,0,12,5.4,12,12v128
			C172,166.6,166.6,172,160,172z"/>
	</g>
	<g id="back_x2C__edge" display="inline">
		<path fill="#FFFFFF" fill-opacity="0.1" d="M160,20H32c-6.6,0-12,5.4-12,12v1c0-6.6,5.4-12,12-12h128c6.6,0,12,5.4,12,12v-1
			C172,25.4,166.6,20,160,20z"/>
		<path fill="#212121" fill-opacity="0.2" d="M160,172H32c-6.6,0-12-5.4-12-12v-1c0,6.6,5.4,12,12,12h128c6.6,0,12-5.4,12-12v1
			C172,166.6,166.6,172,160,172z"/>
	</g>
	<g id="front" display="inline">
		<g>
			<g>
				
					<image overflow="visible" opacity="0.2" width="434" height="434" xlink:href="A6275194.png"  transform="matrix(0.24 0 0 0.24 44 48)">
				</image>
				<circle fill="#9E9E9E" cx="96" cy="96" r="40"/>
			</g>
		</g>
	</g>
	<g id="front_x2C__edge" display="inline">
		<path fill="#FFFFFF" fill-opacity="0.2" d="M96,57c21.924,0,39.718,17.64,39.987,39.5C135.989,96.333,136,96.168,136,96
			c0-22.091-17.909-40-40-40S56,73.909,56,96c0,0.168,0.011,0.333,0.013,0.5C56.282,74.64,74.076,57,96,57z"/>
		<path fill="#212121" fill-opacity="0.1" d="M96,136c21.924,0,39.718-17.64,39.987-39.5C135.989,96.667,136,96.832,136,97
			c0,22.091-17.909,40-40,40s-40-17.909-40-40c0-0.168,0.011-0.333,0.013-0.5C56.282,118.36,74.076,136,96,136z"/>
	</g>
	<g id="finish" display="inline">
		<radialGradient id="SVGID_5_" cx="23.7676" cy="23.9332" r="204.6249" gradientUnits="userSpaceOnUse">
			<stop  offset="0" style="stop-color:#FFFFFF;stop-opacity:0.1"/>
			<stop  offset="1" style="stop-color:#FFFFFF;stop-opacity:0"/>
		</radialGradient>
		<path fill="url(#SVGID_5_)" d="M160,172H32c-6.6,0-12-5.4-12-12V32c0-6.6,5.4-12,12-12h128c6.6,0,12,5.4,12,12v128
			C172,166.6,166.6,172,160,172z"/>
	</g>
	<g id="border" display="inline">
		
			<use xlink:href="#material_x5F_product_x5F_icon_x5F_border"  width="192" height="192" y="-192" transform="matrix(1 0 0 -1 0 0)" overflow="visible"/>
	</g>
	<g id="grid" display="inline">
		
			<use xlink:href="#material_x5F_product_x5F_icon_x5F_grid"  width="192" height="192" id="XMLID_1_" y="-192" transform="matrix(1 0 0 -1 0 0)" overflow="visible" opacity="0.15"/>
	</g>
	<g id="keylines" display="inline">
		
			<use xlink:href="#material_x5F_product_x5F_icon_x5F_keylines"  width="192" height="192" id="XMLID_2_" x="0" y="-192" transform="matrix(1 0 0 -1 0 0)" overflow="visible"/>
	</g>
	<g id="trim_area" display="inline">
		
			<use xlink:href="#material_x5F_product_x5F_icon_x5F_trim"  width="192" height="192" y="-192" transform="matrix(1 0 0 -1 0 0)" overflow="visible"/>
	</g>
</g>
<g id="Camada_11">
	<path fill="#DAA287" d="M97.116,19.983c-0.374,0-0.743,0.016-1.116,0.021c-0.373-0.005-0.742-0.021-1.116-0.021
		c-32.092,0-58.107,18.633-58.107,64.848c0,46.214,18.188,88.521,58.107,88.521c0.375,0,1.857,0,2.232,0
		c39.919,0,58.107-42.307,58.107-88.521C155.223,38.616,129.208,19.983,97.116,19.983z"/>
	<path fill="#7E090F" d="M97.116,19.983c-0.374,0-0.743,0.016-1.116,0.021c-0.373-0.005-0.742-0.021-1.116-0.021
		c-32.092,0-58.107,18.633-58.107,64.848c0,46.214,18.188,88.521,58.107,88.521c0.375,0,1.857,0,2.232,0
		c39.919,0,58.107-42.307,58.107-88.521C155.223,38.616,129.208,19.983,97.116,19.983z M120.259,159.755
		c-1.193,0.658-7.006,3.737-9.545,2.763c-0.019-0.008-0.033-0.01-0.052-0.017c-2.282-1.773-6.876-4.284-14.663-4.284
		c-7.805,0-12.402,2.521-14.679,4.296c-0.006,0.002-0.01,0.003-0.015,0.005c-2.615,1.004-8.704-2.294-9.642-2.816
		c-20.179-14.195-24.389-39.858-24.389-39.858l19.5,7.623c10.75-5.75,29.224-9.5,29.224-9.5s18.474,3.75,29.224,9.5l19.5-7.623
		C144.723,119.844,140.504,145.57,120.259,159.755z"/>
	<g>
		<path fill="none" stroke="#7E090F" stroke-width="1.2022" stroke-linecap="round" stroke-miterlimit="10" d="M96.111,131.906
			c-1.223,0-2.619,0.161-3.9-1.28c-1.281-1.442-6.725-3.042-8.966-3.523c-2.241-0.48-0.96-2.562-0.96-2.562s1.234-1.56,2.236-1.461
			c1.001,0.101,7.915-1.502,7.413-15.327"/>
		<path fill="none" stroke="#7E090F" stroke-width="1.2022" stroke-linecap="round" stroke-miterlimit="10" d="M108.608,124.541
			c0,0,1.281,2.081-0.96,2.562c-2.241,0.48-7.685,2.08-8.966,3.523c-1.28,1.441-2.677,1.28-3.899,1.28"/>
	</g>
	<path fill="#DAA287" d="M45.53,84.342c0,0,19.875,14.531,45.625,16.901c0,0-7.75,9.979-12.5,10.977
		c-4.75,0.997-18.275,0-23.275-4.182C51.837,105.075,45.53,84.342,45.53,84.342z"/>
	<path fill="#FFFFFF" d="M58.905,98.069c0,0,19.668,0.749,23.75,9.666c0,0-6.416,0.166-13.5-0.5S58.905,98.069,58.905,98.069z"/>
	<circle fill="#231815" cx="74.155" cy="104.434" r="2.619"/>
	<path fill="#DAA287" d="M146.469,84.342c0,0-19.875,14.531-45.625,16.901c0,0,7.75,9.979,12.5,10.977
		c4.75,0.997,18.275,0,23.275-4.182C140.163,105.075,146.469,84.342,146.469,84.342z"/>
	<path fill="#FFFFFF" d="M133.094,98.069c0,0-19.668,0.749-23.75,9.666c0,0,6.416,0.166,13.5-0.5
		C129.928,106.569,133.094,98.069,133.094,98.069z"/>
	<circle fill="#231815" cx="117.844" cy="104.434" r="2.619"/>
	<path fill="#7E090F" d="M102.286,141.578c-2.073-1.243-3.287,0.302-5.928,0.623c-2.642-0.321-3.855-1.866-5.929-0.623
		c-2.196,1.317-10.451,3.25-10.451,3.25c3.69,1.23,9.834-0.928,11.327-0.576c1.388,0.327,2.938,1.591,5.052,1.698l0,0h0.001l0,0
		c2.114-0.107,3.664-1.371,5.052-1.698c1.493-0.352,7.638,1.807,11.327,0.576C112.737,144.828,104.482,142.895,102.286,141.578z"/>
	<path fill="#7E090F" d="M79.978,145.254c0,0,8.374,5.683,16.021,5.683c7.647,0,12.098-2.443,12.098-2.443
		s-5.179,0.765-10.209,0.698c-4.665-0.061-3.578-0.699-6.108-0.742C89.25,148.407,79.978,145.254,79.978,145.254z"/>
	<g>
		
			<ellipse transform="matrix(0.9997 0.0247 -0.0247 0.9997 2.209 -3.7704)" fill="#E8D800" stroke="#231815" stroke-width="1.0799" stroke-miterlimit="10" cx="154.006" cy="87.695" rx="3.149" ry="16.566"/>
		<path fill="#E8D800" stroke="#231815" stroke-width="1.0799" stroke-miterlimit="10" d="M153.868,93.328
			c0,0,7.447-18.964,16.002-22.714c0,0-5.451-3.649-10.648-4.582c0,0,18.951-27.329,28.814-37.038c0,0-26.592,24.149-35.23,38.341
			l10.723,4.332c0,0-7.518,7.671-9.443,12.846C154.085,84.512,151.686,94.173,153.868,93.328z"/>
		
			<ellipse transform="matrix(-0.9997 0.0246 -0.0246 -0.9997 78.2038 180.0208)" fill="#E8D800" stroke="#231815" stroke-width="1.0799" stroke-miterlimit="10" cx="37.993" cy="90.492" rx="3.149" ry="16.566"/>
		<path fill="#E8D800" stroke="#231815" stroke-width="1.0799" stroke-miterlimit="10" d="M38.132,96.124
			c0,0-7.447-18.964-16.002-22.714c0,0,5.451-3.649,10.649-4.582c0,0-18.951-27.329-28.815-37.038c0,0,26.592,24.149,35.231,38.341
			l-10.723,4.332c0,0,7.518,7.671,9.443,12.846C37.915,87.309,40.313,96.97,38.132,96.124z"/>
	</g>
</g>
</svg>
